<svg xmlns="http://www.w3.org/2000/svg" version="1.1" xmlns:xlink="http://www.w3.org/1999/xlink" xmlns:svgjs="http://svgjs.com/svgjs" width="1440" height="560" preserveAspectRatio="none" viewBox="0 0 1440 560"><g mask="url(&quot;#SvgjsMask1023&quot;)" fill="none"><path d="M1416.543,559.922C1452.817,557.133,1481.107,531.72,1498.844,499.955C1516.061,469.12,1522.694,431.931,1505.112,401.303C1487.465,370.561,1451.984,357.235,1416.543,356.585C1379.734,355.91,1342.887,367.52,1322.163,397.948C1298.562,432.6,1287.846,478.33,1308.954,514.555C1329.956,550.598,1374.951,563.12,1416.543,559.922" fill="rgba(0, 0, 0, 0.08)" class="triangle-float3"></path><path d="M869.39 451.95 a96.63 96.63 0 1 0 193.26 0 a96.63 96.63 0 1 0 -193.26 0z" fill="rgba(0, 0, 0, 0.08)" class="triangle-float1"></path><path d="M937.69,531.207C998.59,532.684,1064.092,511.183,1090.975,456.517C1115.987,405.654,1079.748,351.413,1049.759,303.316C1022.274,259.236,989.603,212.552,937.69,210.676C883.315,208.711,838.317,247.821,810.656,294.675C782.444,342.462,770.508,400.493,796.765,449.382C824.311,500.672,879.488,529.795,937.69,531.207" fill="rgba(0, 0, 0, 0.08)" class="triangle-float3"></path><path d="M913.96,145.241C942.508,144.781,959.832,117.193,973.843,92.315C987.492,68.08,999.017,40.657,986.985,15.58C973.473,-12.58,945.191,-32.078,913.96,-32.489C882.074,-32.908,851.779,-14.914,837.531,13.615C824.483,39.742,835.972,69.046,850.637,94.301C865.217,119.41,884.929,145.709,913.96,145.241" fill="rgba(0, 0, 0, 0.08)" class="triangle-float1"></path><path d="M17.14 457.01 a141.84 141.84 0 1 0 283.68 0 a141.84 141.84 0 1 0 -283.68 0z" fill="rgba(0, 0, 0, 0.08)" class="triangle-float3"></path><path d="M1203.777,386.146C1225.113,386.426,1243.658,372.556,1254.069,353.93C1264.218,335.773,1264.445,313.882,1254.328,295.707C1243.92,277.009,1225.151,264.626,1203.777,263.576C1180.357,262.425,1154.954,269.642,1143.82,290.278C1133.05,310.239,1143.695,333.408,1155.721,352.638C1166.819,370.383,1182.849,385.871,1203.777,386.146" fill="rgba(0, 0, 0, 0.08)" class="triangle-float1"></path><path d="M876.32 296.18 a99.92 99.92 0 1 0 199.84 0 a99.92 99.92 0 1 0 -199.84 0z" fill="rgba(0, 0, 0, 0.08)" class="triangle-float3"></path><path d="M799.69 283.34 a182.02 182.02 0 1 0 364.04 0 a182.02 182.02 0 1 0 -364.04 0z" fill="rgba(0, 0, 0, 0.08)" class="triangle-float2"></path><path d="M1307.881,323.413C1335.675,322.375,1359.643,305.306,1373.164,281.001C1386.292,257.402,1387.259,228.664,1373.523,205.413C1360.013,182.544,1334.44,170.88,1307.881,170.498C1280.563,170.105,1253.648,180.487,1238.885,203.476C1222.878,228.401,1218.795,260.54,1233.566,286.217C1248.371,311.952,1278.212,324.521,1307.881,323.413" fill="rgba(0, 0, 0, 0.08)" class="triangle-float3"></path><path d="M1228.949,231.124C1244.626,231.461,1257.408,219.877,1265.075,206.198C1272.551,192.859,1274.255,176.837,1266.887,163.438C1259.255,149.559,1244.755,139.477,1228.949,140.499C1214.397,141.44,1205.404,154.924,1198.653,167.849C1192.534,179.564,1189.706,192.781,1195.414,204.702C1202.001,218.459,1213.7,230.797,1228.949,231.124" fill="rgba(0, 0, 0, 0.08)" class="triangle-float1"></path><path d="M403.77 289.78 a152.42 152.42 0 1 0 304.84 0 a152.42 152.42 0 1 0 -304.84 0z" fill="rgba(0, 0, 0, 0.08)" class="triangle-float2"></path><path d="M563.5 137.37 a170.51 170.51 0 1 0 341.02 0 a170.51 170.51 0 1 0 -341.02 0z" fill="rgba(0, 0, 0, 0.08)" class="triangle-float1"></path><path d="M1086.25 106.49 a155.95 155.95 0 1 0 311.9 0 a155.95 155.95 0 1 0 -311.9 0z" fill="rgba(0, 0, 0, 0.08)" class="triangle-float3"></path><path d="M1124.383,339.763C1183.452,345.244,1248.849,335.912,1281.651,286.483C1317.268,232.811,1311.935,161.779,1279.38,106.196C1247.178,51.214,1188.019,14.738,1124.383,17.967C1065.285,20.965,1019.475,67.043,994.426,120.654C973.008,166.492,984.858,217.82,1010.668,261.337C1035.844,303.784,1075.243,335.203,1124.383,339.763" fill="rgba(0, 0, 0, 0.08)" class="triangle-float3"></path><path d="M676.06 6.64 a159.24 159.24 0 1 0 318.48 0 a159.24 159.24 0 1 0 -318.48 0z" fill="rgba(0, 0, 0, 0.08)" class="triangle-float3"></path><path d="M531.62 136.14 a183.2 183.2 0 1 0 366.4 0 a183.2 183.2 0 1 0 -366.4 0z" fill="rgba(0, 0, 0, 0.08)" class="triangle-float2"></path><path d="M1514.15,319.81C1567.349,320.25,1603.277,271.037,1628.155,224.011C1651.076,180.685,1659.054,131.017,1637.252,87.118C1612.767,37.816,1569.194,-6.151,1514.15,-5.545C1459.821,-4.947,1419.425,40.922,1395.655,89.778C1374.929,132.377,1381.674,180.037,1403.368,222.151C1427.53,269.056,1461.39,319.373,1514.15,319.81" fill="rgba(0, 0, 0, 0.08)" class="triangle-float3"></path><path d="M363.476,188.649C398.439,186.764,428.839,168.493,448.137,139.277C470.054,106.097,485.889,65.534,468.385,29.829C449.12,-9.469,407.238,-34.041,363.476,-33.423C320.676,-32.818,284.453,-4.646,263.578,32.722C243.254,69.104,238.893,114.257,261.374,149.347C282.46,182.259,324.446,190.753,363.476,188.649" fill="rgba(0, 0, 0, 0.08)" class="triangle-float3"></path><path d="M-44.5 462.5 a107.34 107.34 0 1 0 214.68 0 a107.34 107.34 0 1 0 -214.68 0z" fill="rgba(0, 0, 0, 0.08)" class="triangle-float1"></path><path d="M-24.19 10.31 a136.03 136.03 0 1 0 272.06 0 a136.03 136.03 0 1 0 -272.06 0z" fill="rgba(0, 0, 0, 0.08)" class="triangle-float3"></path></g><defs><mask id="SvgjsMask1023"><rect width="1440" height="560" fill="#ffffff"></rect></mask><style>
            @keyframes float1 {
                0%{transform: translate(0, 0)}
                50%{transform: translate(-10px, 0)}
                100%{transform: translate(0, 0)}
            }

            .triangle-float1 {
                animation: float1 5s infinite;
            }

            @keyframes float2 {
                0%{transform: translate(0, 0)}
                50%{transform: translate(-5px, -5px)}
                100%{transform: translate(0, 0)}
            }

            .triangle-float2 {
                animation: float2 4s infinite;
            }

            @keyframes float3 {
                0%{transform: translate(0, 0)}
                50%{transform: translate(0, -10px)}
                100%{transform: translate(0, 0)}
            }

            .triangle-float3 {
                animation: float3 6s infinite;
            }
        </style></defs></svg>