<svg xmlns="http://www.w3.org/2000/svg" version="1.1" xmlns:xlink="http://www.w3.org/1999/xlink" xmlns:svgjs="http://svgjs.com/svgjs" width="1080" height="450" preserveAspectRatio="none" viewBox="0 0 1080 450"><g mask="url(&quot;#SvgjsMask3366&quot;)" fill="none"><use xlink:href="#SvgjsSymbol3373" x="0" y="0"></use><use xlink:href="#SvgjsSymbol3373" x="720" y="0"></use></g><defs><mask id="SvgjsMask3366"><rect width="1080" height="450" fill="#ffffff"></rect></mask><path d="M-1 0 a1 1 0 1 0 2 0 a1 1 0 1 0 -2 0z" id="SvgjsPath3371"></path><path d="M-3 0 a3 3 0 1 0 6 0 a3 3 0 1 0 -6 0z" id="SvgjsPath3370"></path><path d="M-5 0 a5 5 0 1 0 10 0 a5 5 0 1 0 -10 0z" id="SvgjsPath3369"></path><path d="M2 -2 L-2 2z" id="SvgjsPath3368"></path><path d="M6 -6 L-6 6z" id="SvgjsPath3367"></path><path d="M30 -30 L-30 30z" id="SvgjsPath3372"></path></defs><symbol id="SvgjsSymbol3373"><use xlink:href="#SvgjsPath3367" x="30" y="30" stroke="rgba(16, 16, 16, 1)"></use><use xlink:href="#SvgjsPath3367" x="30" y="90" stroke="rgba(16, 16, 16, 1)"></use><use xlink:href="#SvgjsPath3368" x="30" y="150" stroke="rgba(16, 16, 16, 1)"></use><use xlink:href="#SvgjsPath3369" x="30" y="210" stroke="rgba(16, 16, 16, 1)"></use><use xlink:href="#SvgjsPath3369" x="30" y="270" stroke="rgba(16, 16, 16, 1)"></use><use xlink:href="#SvgjsPath3368" x="30" y="330" stroke="rgba(16, 16, 16, 1)"></use><use xlink:href="#SvgjsPath3369" x="30" y="390" stroke="rgba(16, 16, 16, 1)"></use><use xlink:href="#SvgjsPath3367" x="30" y="450" stroke="rgba(16, 16, 16, 1)"></use><use xlink:href="#SvgjsPath3369" x="90" y="30" stroke="rgba(16, 16, 16, 1)"></use><use xlink:href="#SvgjsPath3370" x="90" y="90" stroke="rgba(16, 16, 16, 1)"></use><use xlink:href="#SvgjsPath3368" x="90" y="150" stroke="rgba(16, 16, 16, 1)"></use><use xlink:href="#SvgjsPath3371" x="90" y="210" stroke="rgba(16, 16, 16, 1)"></use><use xlink:href="#SvgjsPath3369" x="90" y="270" stroke="rgba(16, 16, 16, 1)"></use><use xlink:href="#SvgjsPath3367" x="90" y="330" stroke="rgba(16, 16, 16, 1)"></use><use xlink:href="#SvgjsPath3367" x="90" y="390" stroke="rgba(16, 16, 16, 1)"></use><use xlink:href="#SvgjsPath3369" x="90" y="450" stroke="rgba(16, 16, 16, 1)"></use><use xlink:href="#SvgjsPath3370" x="150" y="30" stroke="rgba(16, 16, 16, 1)"></use><use xlink:href="#SvgjsPath3372" x="150" y="90" stroke="rgba(16, 16, 16, 1)" stroke-width="3"></use><use xlink:href="#SvgjsPath3369" x="150" y="150" stroke="rgba(16, 16, 16, 1)"></use><use xlink:href="#SvgjsPath3368" x="150" y="210" stroke="rgba(16, 16, 16, 1)"></use><use xlink:href="#SvgjsPath3367" x="150" y="270" stroke="rgba(16, 16, 16, 1)"></use><use xlink:href="#SvgjsPath3367" x="150" y="330" stroke="rgba(16, 16, 16, 1)"></use><use xlink:href="#SvgjsPath3369" x="150" y="390" stroke="rgba(16, 16, 16, 1)"></use><use xlink:href="#SvgjsPath3369" x="150" y="450" stroke="rgba(16, 16, 16, 1)"></use><use xlink:href="#SvgjsPath3367" x="210" y="30" stroke="rgba(16, 16, 16, 1)"></use><use xlink:href="#SvgjsPath3367" x="210" y="90" stroke="rgba(16, 16, 16, 1)"></use><use xlink:href="#SvgjsPath3367" x="210" y="150" stroke="rgba(16, 16, 16, 1)"></use><use xlink:href="#SvgjsPath3368" x="210" y="210" stroke="rgba(16, 16, 16, 1)"></use><use xlink:href="#SvgjsPath3367" x="210" y="270" stroke="rgba(16, 16, 16, 1)"></use><use xlink:href="#SvgjsPath3369" x="210" y="330" stroke="rgba(16, 16, 16, 1)"></use><use xlink:href="#SvgjsPath3367" x="210" y="390" stroke="rgba(16, 16, 16, 1)"></use><use xlink:href="#SvgjsPath3370" x="210" y="450" stroke="rgba(16, 16, 16, 1)"></use><use xlink:href="#SvgjsPath3371" x="270" y="30" stroke="rgba(16, 16, 16, 1)"></use><use xlink:href="#SvgjsPath3367" x="270" y="90" stroke="rgba(16, 16, 16, 1)"></use><use xlink:href="#SvgjsPath3372" x="270" y="150" stroke="rgba(16, 16, 16, 1)" stroke-width="3"></use><use xlink:href="#SvgjsPath3372" x="270" y="210" stroke="rgba(16, 16, 16, 1)" stroke-width="3"></use><use xlink:href="#SvgjsPath3369" x="270" y="270" stroke="rgba(16, 16, 16, 1)"></use><use xlink:href="#SvgjsPath3368" x="270" y="330" stroke="rgba(16, 16, 16, 1)"></use><use xlink:href="#SvgjsPath3371" x="270" y="390" stroke="rgba(16, 16, 16, 1)"></use><use xlink:href="#SvgjsPath3367" x="270" y="450" stroke="rgba(16, 16, 16, 1)"></use><use xlink:href="#SvgjsPath3371" x="330" y="30" stroke="rgba(16, 16, 16, 1)"></use><use xlink:href="#SvgjsPath3369" x="330" y="90" stroke="rgba(16, 16, 16, 1)"></use><use xlink:href="#SvgjsPath3367" x="330" y="150" stroke="rgba(16, 16, 16, 1)"></use><use xlink:href="#SvgjsPath3367" x="330" y="210" stroke="rgba(16, 16, 16, 1)"></use><use xlink:href="#SvgjsPath3370" x="330" y="270" stroke="rgba(16, 16, 16, 1)"></use><use xlink:href="#SvgjsPath3367" x="330" y="330" stroke="rgba(16, 16, 16, 1)"></use><use xlink:href="#SvgjsPath3368" x="330" y="390" stroke="rgba(16, 16, 16, 1)"></use><use xlink:href="#SvgjsPath3372" x="330" y="450" stroke="rgba(16, 16, 16, 1)" stroke-width="3"></use><use xlink:href="#SvgjsPath3369" x="390" y="30" stroke="rgba(16, 16, 16, 1)"></use><use xlink:href="#SvgjsPath3367" x="390" y="90" stroke="rgba(16, 16, 16, 1)"></use><use xlink:href="#SvgjsPath3367" x="390" y="150" stroke="rgba(16, 16, 16, 1)"></use><use xlink:href="#SvgjsPath3368" x="390" y="210" stroke="rgba(16, 16, 16, 1)"></use><use xlink:href="#SvgjsPath3369" x="390" y="270" stroke="rgba(16, 16, 16, 1)"></use><use xlink:href="#SvgjsPath3367" x="390" y="330" stroke="rgba(16, 16, 16, 1)"></use><use xlink:href="#SvgjsPath3367" x="390" y="390" stroke="rgba(16, 16, 16, 1)"></use><use xlink:href="#SvgjsPath3371" x="390" y="450" stroke="rgba(16, 16, 16, 1)"></use><use xlink:href="#SvgjsPath3367" x="450" y="30" stroke="rgba(16, 16, 16, 1)"></use><use xlink:href="#SvgjsPath3369" x="450" y="90" stroke="rgba(16, 16, 16, 1)"></use><use xlink:href="#SvgjsPath3369" x="450" y="150" stroke="rgba(16, 16, 16, 1)"></use><use xlink:href="#SvgjsPath3372" x="450" y="210" stroke="rgba(16, 16, 16, 1)" stroke-width="3"></use><use xlink:href="#SvgjsPath3367" x="450" y="270" stroke="rgba(16, 16, 16, 1)"></use><use xlink:href="#SvgjsPath3369" x="450" y="330" stroke="rgba(16, 16, 16, 1)"></use><use xlink:href="#SvgjsPath3369" x="450" y="390" stroke="rgba(16, 16, 16, 1)"></use><use xlink:href="#SvgjsPath3367" x="450" y="450" stroke="rgba(16, 16, 16, 1)"></use><use xlink:href="#SvgjsPath3370" x="510" y="30" stroke="rgba(16, 16, 16, 1)"></use><use xlink:href="#SvgjsPath3368" x="510" y="90" stroke="rgba(16, 16, 16, 1)"></use><use xlink:href="#SvgjsPath3369" x="510" y="150" stroke="rgba(16, 16, 16, 1)"></use><use xlink:href="#SvgjsPath3367" x="510" y="210" stroke="rgba(16, 16, 16, 1)"></use><use xlink:href="#SvgjsPath3369" x="510" y="270" stroke="rgba(16, 16, 16, 1)"></use><use xlink:href="#SvgjsPath3367" x="510" y="330" stroke="rgba(16, 16, 16, 1)"></use><use xlink:href="#SvgjsPath3367" x="510" y="390" stroke="rgba(16, 16, 16, 1)"></use><use xlink:href="#SvgjsPath3367" x="510" y="450" stroke="rgba(16, 16, 16, 1)"></use><use xlink:href="#SvgjsPath3367" x="570" y="30" stroke="rgba(16, 16, 16, 1)"></use><use xlink:href="#SvgjsPath3368" x="570" y="90" stroke="rgba(16, 16, 16, 1)"></use><use xlink:href="#SvgjsPath3368" x="570" y="150" stroke="rgba(16, 16, 16, 1)"></use><use xlink:href="#SvgjsPath3367" x="570" y="210" stroke="rgba(16, 16, 16, 1)"></use><use xlink:href="#SvgjsPath3369" x="570" y="270" stroke="rgba(16, 16, 16, 1)"></use><use xlink:href="#SvgjsPath3369" x="570" y="330" stroke="rgba(16, 16, 16, 1)"></use><use xlink:href="#SvgjsPath3369" x="570" y="390" stroke="rgba(16, 16, 16, 1)"></use><use xlink:href="#SvgjsPath3371" x="570" y="450" stroke="rgba(16, 16, 16, 1)"></use><use xlink:href="#SvgjsPath3371" x="630" y="30" stroke="rgba(16, 16, 16, 1)"></use><use xlink:href="#SvgjsPath3367" x="630" y="90" stroke="rgba(16, 16, 16, 1)"></use><use xlink:href="#SvgjsPath3369" x="630" y="150" stroke="rgba(16, 16, 16, 1)"></use><use xlink:href="#SvgjsPath3369" x="630" y="210" stroke="rgba(16, 16, 16, 1)"></use><use xlink:href="#SvgjsPath3371" x="630" y="270" stroke="rgba(16, 16, 16, 1)"></use><use xlink:href="#SvgjsPath3370" x="630" y="330" stroke="rgba(16, 16, 16, 1)"></use><use xlink:href="#SvgjsPath3370" x="630" y="390" stroke="rgba(16, 16, 16, 1)"></use><use xlink:href="#SvgjsPath3367" x="630" y="450" stroke="rgba(16, 16, 16, 1)"></use><use xlink:href="#SvgjsPath3372" x="690" y="30" stroke="rgba(16, 16, 16, 1)" stroke-width="3"></use><use xlink:href="#SvgjsPath3368" x="690" y="90" stroke="rgba(16, 16, 16, 1)"></use><use xlink:href="#SvgjsPath3367" x="690" y="150" stroke="rgba(16, 16, 16, 1)"></use><use xlink:href="#SvgjsPath3368" x="690" y="210" stroke="rgba(16, 16, 16, 1)"></use><use xlink:href="#SvgjsPath3371" x="690" y="270" stroke="rgba(16, 16, 16, 1)"></use><use xlink:href="#SvgjsPath3368" x="690" y="330" stroke="rgba(16, 16, 16, 1)"></use><use xlink:href="#SvgjsPath3367" x="690" y="390" stroke="rgba(16, 16, 16, 1)"></use><use xlink:href="#SvgjsPath3372" x="690" y="450" stroke="rgba(16, 16, 16, 1)" stroke-width="3"></use></symbol></svg>